<svg width="176" height="176" viewBox="0 0 176 176" fill="none" xmlns="http://www.w3.org/2000/svg">
<g opacity="0.8">
<path fill-rule="evenodd" clip-rule="evenodd" d="M98.9926 106.326C115.193 106.326 128.326 93.193 128.326 76.9926C128.326 60.7923 115.193 47.6593 98.9926 47.6593C82.7923 47.6593 69.6593 60.7923 69.6593 76.9926C69.6593 93.193 82.7923 106.326 98.9926 106.326Z" stroke="#132B96" stroke-linecap="round" stroke-linejoin="round"/>
<path fill-rule="evenodd" clip-rule="evenodd" d="M14.6666 51.326C20.7418 51.326 25.6666 46.4012 25.6666 40.326C25.6666 34.2509 20.7418 29.326 14.6666 29.326C8.59149 29.326 3.66663 34.2509 3.66663 40.326C3.66663 46.4012 8.59149 51.326 14.6666 51.326Z" stroke="#132B96" stroke-linecap="round" stroke-linejoin="round"/>
<path fill-rule="evenodd" clip-rule="evenodd" d="M161.333 25.6593C167.409 25.6593 172.333 20.7344 172.333 14.6593C172.333 8.58417 167.409 3.6593 161.333 3.6593C155.258 3.6593 150.333 8.58417 150.333 14.6593C150.333 20.7344 155.258 25.6593 161.333 25.6593Z" stroke="#132B96" stroke-linecap="round" stroke-linejoin="round"/>
<path fill-rule="evenodd" clip-rule="evenodd" d="M14.6666 172.326C20.7418 172.326 25.6666 167.401 25.6666 161.326C25.6666 155.251 20.7418 150.326 14.6666 150.326C8.59149 150.326 3.66663 155.251 3.66663 161.326C3.66663 167.401 8.59149 172.326 14.6666 172.326Z" stroke="#132B96" stroke-linecap="round" stroke-linejoin="round"/>
<path fill-rule="evenodd" clip-rule="evenodd" d="M98.9927 172.326C105.068 172.326 109.993 167.401 109.993 161.326C109.993 155.251 105.068 150.326 98.9927 150.326C92.9175 150.326 87.9927 155.251 87.9927 161.326C87.9927 167.401 92.9175 172.326 98.9927 172.326Z" stroke="#132B96" stroke-linecap="round" stroke-linejoin="round"/>
<path d="M22.4399 153.545L78.3199 97.8047" stroke="#132B96" stroke-linecap="round" stroke-linejoin="round"/>
<path d="M119.775 56.2906L153.545 22.4399" stroke="#132B96" stroke-linecap="round" stroke-linejoin="round"/>
<path d="M24.5667 45.0927L72.028 65.4427" stroke="#132B96" stroke-linecap="round" stroke-linejoin="round"/>
<path d="M150.788 102.872L124.256 91.9087" stroke="#132B96" stroke-linecap="round" stroke-linejoin="round"/>
<path d="M98.9927 150.326V106.326" stroke="#132B96" stroke-linecap="round" stroke-linejoin="round"/>
<path fill-rule="evenodd" clip-rule="evenodd" d="M161.333 117.326C167.409 117.326 172.333 112.401 172.333 106.326C172.333 100.251 167.409 95.326 161.333 95.326C155.258 95.326 150.333 100.251 150.333 106.326C150.333 112.401 155.258 117.326 161.333 117.326Z" stroke="#132B96" stroke-linecap="round" stroke-linejoin="round"/>
</g>
</svg>
