<svg width="178" height="178" viewBox="0 0 178 178" fill="none" xmlns="http://www.w3.org/2000/svg">
<g opacity="0.8">
<path fill-rule="evenodd" clip-rule="evenodd" d="M1 91.2348C0.997609 130.079 25.2364 164.565 61.1722 176.846C65.575 177.669 67.1799 174.887 67.1799 172.494C67.1799 170.35 67.106 164.677 67.0638 157.152C42.5894 162.598 37.4264 145.057 37.4264 145.057C33.4142 134.631 27.6493 131.848 27.6493 131.848C19.6567 126.261 28.2512 126.369 28.2512 126.369C37.0885 127.008 41.7342 135.67 41.7342 135.67C49.5791 149.453 62.3231 145.469 67.3383 143.163C68.1407 137.338 70.4108 133.364 72.9342 131.101C53.3907 128.827 32.8441 121.086 32.8441 86.5141C32.8441 76.6612 36.2755 68.6057 41.9032 62.3042C40.9951 60.0196 37.9754 50.838 42.7689 38.4191C42.7689 38.4191 50.1598 35.9938 66.9582 47.6765C74.14 45.6688 81.5496 44.6458 88.9935 44.634C96.4333 44.6442 103.839 45.6636 111.018 47.6656C127.806 35.9938 135.197 38.4191 135.197 38.4191C139.99 50.838 136.971 60.0196 136.063 62.3042C141.711 68.6057 145.111 76.6612 145.111 86.5141C145.111 121.172 124.533 128.806 104.937 131.036C108.094 133.819 110.913 139.33 110.913 147.743C110.913 159.804 110.807 169.538 110.807 172.494C110.807 174.908 112.391 177.713 116.847 176.836C159.483 162.246 184.543 117.05 174.967 72.016C165.391 26.982 124.257 -3.41226 79.5685 1.52467C34.8798 6.46161 1.00284 45.1426 1 91.2348H1Z" stroke="#132B96" stroke-width="0.8"/>
</g>
</svg>
