<?xml version="1.0" encoding="utf-8"?>
<!-- Generator: Adobe Illustrator 16.0.4, SVG Export Plug-In . SVG Version: 6.00 Build 0)  -->
<!DOCTYPE svg PUBLIC "-//W3C//DTD SVG 1.1//EN" "http://www.w3.org/Graphics/SVG/1.1/DTD/svg11.dtd">
<svg version="1.1" id="Layer_1" xmlns="http://www.w3.org/2000/svg" xmlns:xlink="http://www.w3.org/1999/xlink" x="0px" y="0px"
	 width="512px" height="512px" viewBox="0 0 512 512" enable-background="new 0 0 512 512" xml:space="preserve">
<g>
	<path fill="#FAFAFA" d="M53.558,191.823v77.937c50.577,0,98.114,19.76,133.852,55.67c35.317,35.493,54.93,82.574,55.436,132.789
		h77.936C319.704,311.146,200.271,191.823,53.558,191.823z"/>
	<path fill="#FAFAFA" d="M53.667,53.681v77.924c179.558,0,325.728,146.336,326.843,326.615h77.933
		C457.33,234.962,276.209,53.681,53.667,53.681z"/>
	<path fill="#FAFAFA" d="M107.473,350.176c-29.807,0-53.976,24.157-53.976,53.972c0,29.821,24.168,53.977,53.976,53.977
		c29.801,0,53.986-24.153,53.986-53.977C161.459,374.334,137.273,350.176,107.473,350.176z"/>
</g>
</svg>
