<?xml version="1.0" standalone="no"?>
<!DOCTYPE svg PUBLIC "-//W3C//DTD SVG 20010904//EN"
 "http://www.w3.org/TR/2001/REC-SVG-20010904/DTD/svg10.dtd">
<svg version="1.0" xmlns="http://www.w3.org/2000/svg"
 width="1280.000000pt" height="1280.000000pt" viewBox="0 0 1280.000000 1280.000000"
 preserveAspectRatio="xMidYMid meet">
<metadata>
Created by potrace 1.15, written by Peter Selinger 2001-2017
</metadata>
<g transform="translate(0.000000,1280.000000) scale(0.100000,-0.100000)"
fill="#000000" stroke="none">
<path d="M2295 11940 c-293 -14 -624 -45 -712 -67 l-23 -5 0 -1049 c0 -618 4
-1049 9 -1049 5 0 76 11 158 25 423 70 975 91 1478 54 1554 -112 2982 -700
4173 -1717 189 -162 592 -565 752 -753 1021 -1194 1607 -2619 1719 -4174 37
-503 16 -1055 -54 -1478 -14 -82 -25 -153 -25 -158 0 -5 431 -9 1049 -9 l1049
0 6 28 c65 319 92 1131 56 1697 -70 1094 -334 2170 -775 3165 -864 1949 -2399
3560 -4298 4511 -1127 565 -2305 885 -3572 969 -214 14 -778 20 -990 10z"/>
<path d="M2255 7855 c-258 -24 -600 -78 -671 -105 l-24 -10 0 -905 c0 -498 1
-905 3 -905 1 0 63 20 137 45 157 53 250 75 450 106 128 20 184 23 470 24 387
0 516 -14 840 -92 919 -221 1723 -828 2198 -1658 193 -338 334 -728 401 -1112
42 -235 46 -292 46 -623 -1 -286 -4 -342 -24 -470 -31 -200 -53 -293 -106
-450 -25 -74 -45 -136 -45 -137 0 -2 407 -3 905 -3 l905 0 10 24 c31 82 90
482 111 750 15 194 6 745 -15 916 -28 225 -46 343 -77 491 -158 781 -524 1562
-1023 2184 -176 220 -443 499 -646 676 -588 514 -1289 886 -2064 1098 -243 67
-443 104 -786 147 -175 22 -804 28 -995 9z"/>
<path d="M2515 3824 c-510 -86 -900 -508 -944 -1020 -40 -460 189 -884 599
-1107 126 -69 274 -112 431 -126 814 -70 1429 700 1183 1481 -147 466 -598
792 -1088 787 -55 -1 -137 -7 -181 -15z"/>
</g>
</svg>
