<?xml version="1.0" encoding="UTF-8"?> <svg xmlns="http://www.w3.org/2000/svg" xmlns:xlink="http://www.w3.org/1999/xlink" width="1024px" height="1024px" viewBox="0 0 1024 1024"><!-- Generator: Sketch 50.2 (55047) - http://www.bohemiancoding.com/sketch --><title>White</title><desc>Created with Sketch.</desc><defs></defs><g id="White" stroke="none" stroke-width="1" fill="none" fill-rule="evenodd"><g id="Group" transform="translate(0.000000, 83.000000)" fill="#FFFFFF" fill-rule="nonzero"><path d="M385.621027,806.843489 C355.18163,806.843489 360.354042,795.350025 349.855754,766.366983 L260.34313,471.77131 L949.371565,63.0059737" id="Shape"></path><path d="M385.621027,806.843489 C409.110633,806.843489 419.489124,796.100909 432.600239,783.353883 L557.878136,661.536788 L401.609619,567.304319" id="Shape"></path><path d="M401.593959,567.327809 L780.246404,847.081183 C823.455534,870.92235 854.641117,858.578562 865.404054,806.964852 L1019.53502,80.6427527 C1035.31533,17.3758486 995.418239,-11.3190538 954.082014,7.44757524 L49.0275051,356.432648 C-12.750941,381.211833 -12.390767,415.678131 37.7665881,431.035635 L270.02398,503.526908 L807.724545,164.297852 C833.108196,148.905113 856.405187,157.180579 837.283864,174.150958" id="Shape"></path></g></g></svg> 